# xmcd
#
# Track frame offsets: 
#        150
#        22773
#        47723
#        76923
#        102331
#        126444
#        149434
#        171914
#        188647
#        205053
#        222921
#        238839
#        253972
#        270648
#        287454
#        306038
#
# Disc length: 4352 seconds
#
# Revision: 1
# Processed by: cddbd v1.5.1PL0 Copyright (c) Steve Scherf et al.
# Submitted via: ExactAudioCopy v0.95a5
#
DISCID=e710fe10
DTITLE=Various Artist - Golden Accordion
DYEAR=1997
DGENRE=Instrumental
TTITLE0=Tiko-Tiko
TTITLE1=Bamboleo
TTITLE2=Somos
TTITLE3=Melody
TTITLE4=Besame Mucho
TTITLE5=Summertime
TTITLE6=O Sole Mio
TTITLE7=Champagne Splash
TTITLE8=Domino
TTITLE9=Lambada
TTITLE10=Flower May
TTITLE11=Kumparsita
TTITLE12=Czardas
TTITLE13=Black Eyes
TTITLE14=Heart
TTITLE15=Tired Sun
EXTD=ID3G: 2
EXTT0=
EXTT1=
EXTT2=
EXTT3=
EXTT4=
EXTT5=
EXTT6=
EXTT7=
EXTT8=
EXTT9=
EXTT10=
EXTT11=
EXTT12=
EXTT13=
EXTT14=
EXTT15=
PLAYORDER=
